<svg xmlns="http://www.w3.org/2000/svg" viewBox="0 0 48 48" width="48" height="48">
  <rect fill="#1565C0" x="2" y="10" width="44" height="28" rx="4"/>
  <path fill="#FFF" d="M20.8 29h-2.4l1.5-9h2.4L20.8 29zM17.3 20l-2.3 6.2-.3-1.4-.8-4.2c-.1-.5-.5-.6-1-.6h-3.8l-.1.3c.8.2 1.7.5 2.2.8.3.2.4.4.5.7l1.8 6.2h2.5l3.8-8H17.3zM32.5 29h2.2l-1.9-9h-2c-.5 0-.9.3-1.1.7l-3.5 8.3h2.5l.5-1.4h3L32.5 29zM30.1 25.5l1.2-3.4.7 3.4H30.1zM27.3 22.1l.3-2c-.4-.1-.9-.3-1.4-.3-1.5 0-2.6.8-2.6 2 0 .9.8 1.4 1.4 1.7.6.3.8.5.8.8 0 .4-.5.6-1 .6-.6 0-1-.1-1.6-.4l-.2 2c.4.2 1.1.3 1.8.3 1.7 0 2.8-.8 2.8-2.1 0-.7-.4-1.2-1.3-1.6-.6-.3-.9-.5-.9-.8C25.4 22.1 25.8 22 26.2 22c.4 0 .8.1 1.1.1z"/>
</svg>